{
    "asset": {
        "version": "2.0",
        "generator": "Open Asset Import Library (assimp v5.0.5eb040c7)"
    },
    "accessors": [
        {
            "bufferView": 0,
            "byteOffset": 0,
            "componentType": 5126,
            "count": 76497,
            "type": "VEC3",
            "max": [
                3.266218900680542,
                2.7861459255218508,
                0.8966330289840698
            ],
            "min": [
                -1.3900049924850464,
                0.8076480031013489,
                -3.0417659282684328
            ]
        },
        {
            "bufferView": 1,
            "byteOffset": 0,
            "componentType": 5126,
            "count": 76497,
            "type": "VEC3",
            "max": [
                0.9999755620956421,
                0.9999998807907105,
                0.9999312162399292
            ],
            "min": [
                -0.9984983205795288,
                -0.999962329864502,
                -0.9999774694442749
            ]
        },
        {
            "bufferView": 2,
            "byteOffset": 0,
            "componentType": 5126,
            "count": 76497,
            "type": "VEC2",
            "max": [
                0.998121976852417,
                0.9981430172920227
            ],
            "min": [
                0.0011739999754354358,
                0.0009760260581970215
            ]
        },
        {
            "bufferView": 3,
            "byteOffset": 0,
            "componentType": 5125,
            "count": 79758,
            "type": "SCALAR",
            "max": [
                76496
            ],
            "min": [
                0
            ]
        },
        {
            "bufferView": 4,
            "byteOffset": 0,
            "componentType": 5126,
            "count": 61558,
            "type": "VEC3",
            "max": [
                3.3022260665893556,
                2.788274049758911,
                0.8508399724960327
            ],
            "min": [
                -1.4195239543914796,
                0.8032690286636353,
                -3.035815954208374
            ]
        },
        {
            "bufferView": 5,
            "byteOffset": 0,
            "componentType": 5126,
            "count": 61558,
            "type": "VEC3",
            "max": [
                0.9999792575836182,
                0.9999986886978149,
                0.9999347925186157
            ],
            "min": [
                -0.9993646144866943,
                -0.9979859590530396,
                -0.9999048709869385
            ]
        },
        {
            "bufferView": 6,
            "byteOffset": 0,
            "componentType": 5126,
            "count": 61558,
            "type": "VEC2",
            "max": [
                1.9988939762115479,
                0.9825260043144226
            ],
            "min": [
                1.0006920099258423,
                0.0006510019302368164
            ]
        },
        {
            "bufferView": 7,
            "byteOffset": 0,
            "componentType": 5125,
            "count": 64449,
            "type": "SCALAR",
            "max": [
                61557
            ],
            "min": [
                0
            ]
        },
        {
            "bufferView": 8,
            "byteOffset": 0,
            "componentType": 5126,
            "count": 62335,
            "type": "VEC3",
            "max": [
                2.696259021759033,
                2.7305960655212404,
                0.6940320134162903
            ],
            "min": [
                -1.0019689798355103,
                0.8305079936981201,
                -2.991668939590454
            ]
        },
        {
            "bufferView": 9,
            "byteOffset": 0,
            "componentType": 5126,
            "count": 62335,
            "type": "VEC3",
            "max": [
                0.99965900182724,
                0.9999998807907105,
                0.9999945163726807
            ],
            "min": [
                -0.9972241520881653,
                -0.9844729900360107,
                -0.9999179840087891
            ]
        },
        {
            "bufferView": 10,
            "byteOffset": 0,
            "componentType": 5126,
            "count": 62335,
            "type": "VEC2",
            "max": [
                2.9760169982910158,
                0.9916359782218933
            ],
            "min": [
                2.0007200241088869,
                0.0009239912033081055
            ]
        },
        {
            "bufferView": 11,
            "byteOffset": 0,
            "componentType": 5125,
            "count": 67719,
            "type": "SCALAR",
            "max": [
                62334
            ],
            "min": [
                0
            ]
        },
        {
            "bufferView": 12,
            "byteOffset": 0,
            "componentType": 5126,
            "count": 73091,
            "type": "VEC3",
            "max": [
                3.335753917694092,
                2.531805992126465,
                0.8966330289840698
            ],
            "min": [
                -1.7421900033950806,
                0.8043889999389648,
                -3.0286641120910646
            ]
        },
        {
            "bufferView": 13,
            "byteOffset": 0,
            "componentType": 5126,
            "count": 73091,
            "type": "VEC3",
            "max": [
                0.9992196559906006,
                0.9999988079071045,
                0.9990193247795105
            ],
            "min": [
                -0.9993175268173218,
                -0.9502244591712952,
                -0.9999959468841553
            ]
        },
        {
            "bufferView": 14,
            "byteOffset": 0,
            "componentType": 5126,
            "count": 73091,
            "type": "VEC2",
            "max": [
                3.9982399940490724,
                0.9989190101623535
            ],
            "min": [
                3.001260995864868,
                0.0008370280265808106
            ]
        },
        {
            "bufferView": 15,
            "byteOffset": 0,
            "componentType": 5125,
            "count": 77601,
            "type": "SCALAR",
            "max": [
                73090
            ],
            "min": [
                0
            ]
        },
        {
            "bufferView": 16,
            "byteOffset": 0,
            "componentType": 5126,
            "count": 80320,
            "type": "VEC3",
            "max": [
                3.1725668907165529,
                2.788274049758911,
                0.8943700194358826
            ],
            "min": [
                -1.8436959981918336,
                0.8032690286636353,
                -3.0488059520721437
            ]
        },
        {
            "bufferView": 17,
            "byteOffset": 0,
            "componentType": 5126,
            "count": 80320,
            "type": "VEC3",
            "max": [
                0.9998983144760132,
                0.9999998807907105,
                0.9999970197677612
            ],
            "min": [
                -0.9999483823776245,
                -0.972314715385437,
                -0.9999866485595703
            ]
        },
        {
            "bufferView": 18,
            "byteOffset": 0,
            "componentType": 5126,
            "count": 80320,
            "type": "VEC2",
            "max": [
                4.98935604095459,
                0.9987149834632874
            ],
            "min": [
                4.000661849975586,
                0.0006150007247924805
            ]
        },
        {
            "bufferView": 19,
            "byteOffset": 0,
            "componentType": 5125,
            "count": 85647,
            "type": "SCALAR",
            "max": [
                80319
            ],
            "min": [
                0
            ]
        },
        {
            "bufferView": 20,
            "byteOffset": 0,
            "componentType": 5126,
            "count": 53923,
            "type": "VEC3",
            "max": [
                3.330772876739502,
                2.783677101135254,
                0.867339015007019
            ],
            "min": [
                -1.3077059984207154,
                0.8068320155143738,
                -3.042509078979492
            ]
        },
        {
            "bufferView": 21,
            "byteOffset": 0,
            "componentType": 5126,
            "count": 53923,
            "type": "VEC3",
            "max": [
                0.9997943043708801,
                0.9999991655349731,
                0.9997405409812927
            ],
            "min": [
                -0.9998737573623657,
                -0.997969925403595,
                -0.999610960483551
            ]
        },
        {
            "bufferView": 22,
            "byteOffset": 0,
            "componentType": 5126,
            "count": 53923,
            "type": "VEC2",
            "max": [
                5.762618064880371,
                0.9993360042572022
            ],
            "min": [
                5.000625133514404,
                0.0006150007247924805
            ]
        },
        {
            "bufferView": 23,
            "byteOffset": 0,
            "componentType": 5125,
            "count": 56394,
            "type": "SCALAR",
            "max": [
                53922
            ],
            "min": [
                0
            ]
        }
    ],
    "buffers": [
        {
            "byteLength": 14773440,
            "uri": "result.bin"
        }
    ],
    "bufferViews": [
        {
            "buffer": 0,
            "byteOffset": 0,
            "byteLength": 917964,
            "target": 34962
        },
        {
            "buffer": 0,
            "byteOffset": 917964,
            "byteLength": 917964,
            "target": 34962
        },
        {
            "buffer": 0,
            "byteOffset": 1835928,
            "byteLength": 611976,
            "target": 34962
        },
        {
            "buffer": 0,
            "byteOffset": 2447904,
            "byteLength": 319032,
            "target": 34963
        },
        {
            "buffer": 0,
            "byteOffset": 2766936,
            "byteLength": 738696,
            "target": 34962
        },
        {
            "buffer": 0,
            "byteOffset": 3505632,
            "byteLength": 738696,
            "target": 34962
        },
        {
            "buffer": 0,
            "byteOffset": 4244328,
            "byteLength": 492464,
            "target": 34962
        },
        {
            "buffer": 0,
            "byteOffset": 4736792,
            "byteLength": 257796,
            "target": 34963
        },
        {
            "buffer": 0,
            "byteOffset": 4994588,
            "byteLength": 748020,
            "target": 34962
        },
        {
            "buffer": 0,
            "byteOffset": 5742608,
            "byteLength": 748020,
            "target": 34962
        },
        {
            "buffer": 0,
            "byteOffset": 6490628,
            "byteLength": 498680,
            "target": 34962
        },
        {
            "buffer": 0,
            "byteOffset": 6989308,
            "byteLength": 270876,
            "target": 34963
        },
        {
            "buffer": 0,
            "byteOffset": 7260184,
            "byteLength": 877092,
            "target": 34962
        },
        {
            "buffer": 0,
            "byteOffset": 8137276,
            "byteLength": 877092,
            "target": 34962
        },
        {
            "buffer": 0,
            "byteOffset": 9014368,
            "byteLength": 584728,
            "target": 34962
        },
        {
            "buffer": 0,
            "byteOffset": 9599096,
            "byteLength": 310404,
            "target": 34963
        },
        {
            "buffer": 0,
            "byteOffset": 9909500,
            "byteLength": 963840,
            "target": 34962
        },
        {
            "buffer": 0,
            "byteOffset": 10873340,
            "byteLength": 963840,
            "target": 34962
        },
        {
            "buffer": 0,
            "byteOffset": 11837180,
            "byteLength": 642560,
            "target": 34962
        },
        {
            "buffer": 0,
            "byteOffset": 12479740,
            "byteLength": 342588,
            "target": 34963
        },
        {
            "buffer": 0,
            "byteOffset": 12822328,
            "byteLength": 647076,
            "target": 34962
        },
        {
            "buffer": 0,
            "byteOffset": 13469404,
            "byteLength": 647076,
            "target": 34962
        },
        {
            "buffer": 0,
            "byteOffset": 14116480,
            "byteLength": 431384,
            "target": 34962
        },
        {
            "buffer": 0,
            "byteOffset": 14547864,
            "byteLength": 225576,
            "target": 34963
        }
    ],
    "materials": [
        {
            "name": "DefaultMaterial",
            "pbrMetallicRoughness": {
                "baseColorFactor": [
                    0.6000000238418579,
                    0.6000000238418579,
                    0.6000000238418579,
                    1.0
                ],
                "metallicFactor": 0.0
            }
        },
        {
            "name": "TextureAtlas_1001.006",
            "pbrMetallicRoughness": {
                "baseColorFactor": [
                    0.6000000238418579,
                    0.6000000238418579,
                    0.6000000238418579,
                    1.0
                ],
                "metallicFactor": 0.0
            }
        },
        {
            "name": "TextureAtlas_1002.006",
            "pbrMetallicRoughness": {
                "baseColorFactor": [
                    0.6000000238418579,
                    0.6000000238418579,
                    0.6000000238418579,
                    1.0
                ],
                "metallicFactor": 0.0
            }
        },
        {
            "name": "TextureAtlas_1003.006",
            "pbrMetallicRoughness": {
                "baseColorFactor": [
                    0.6000000238418579,
                    0.6000000238418579,
                    0.6000000238418579,
                    1.0
                ],
                "metallicFactor": 0.0
            }
        },
        {
            "name": "TextureAtlas_1004.006",
            "pbrMetallicRoughness": {
                "baseColorFactor": [
                    0.6000000238418579,
                    0.6000000238418579,
                    0.6000000238418579,
                    1.0
                ],
                "metallicFactor": 0.0
            }
        },
        {
            "name": "TextureAtlas_1005.006",
            "pbrMetallicRoughness": {
                "baseColorFactor": [
                    0.6000000238418579,
                    0.6000000238418579,
                    0.6000000238418579,
                    1.0
                ],
                "metallicFactor": 0.0
            }
        },
        {
            "name": "TextureAtlas_1006.006",
            "pbrMetallicRoughness": {
                "baseColorFactor": [
                    0.6000000238418579,
                    0.6000000238418579,
                    0.6000000238418579,
                    1.0
                ],
                "metallicFactor": 0.0
            }
        }
    ],
    "meshes": [
        {
            "name": "texturedMesh.006",
            "primitives": [
                {
                    "mode": 4,
                    "material": 1,
                    "indices": 3,
                    "attributes": {
                        "POSITION": 0,
                        "NORMAL": 1,
                        "TEXCOORD_0": 2
                    }
                },
                {
                    "mode": 4,
                    "material": 2,
                    "indices": 7,
                    "attributes": {
                        "POSITION": 4,
                        "NORMAL": 5,
                        "TEXCOORD_0": 6
                    }
                },
                {
                    "mode": 4,
                    "material": 3,
                    "indices": 11,
                    "attributes": {
                        "POSITION": 8,
                        "NORMAL": 9,
                        "TEXCOORD_0": 10
                    }
                },
                {
                    "mode": 4,
                    "material": 4,
                    "indices": 15,
                    "attributes": {
                        "POSITION": 12,
                        "NORMAL": 13,
                        "TEXCOORD_0": 14
                    }
                },
                {
                    "mode": 4,
                    "material": 5,
                    "indices": 19,
                    "attributes": {
                        "POSITION": 16,
                        "NORMAL": 17,
                        "TEXCOORD_0": 18
                    }
                },
                {
                    "mode": 4,
                    "material": 6,
                    "indices": 23,
                    "attributes": {
                        "POSITION": 20,
                        "NORMAL": 21,
                        "TEXCOORD_0": 22
                    }
                }
            ]
        }
    ],
    "nodes": [
        {
            "name": "input.obj",
            "children": [
                1
            ]
        },
        {
            "name": "texturedMesh.006",
            "mesh": 0
        }
    ],
    "scenes": [
        {
            "nodes": [
                0
            ]
        }
    ],
    "scene": 0
}